<svg>
		<symbol id="facebook-16" viewBox="0 0 16 16" version="1.1" xmlns="http://www.w3.org/2000/svg" xmlns:xlink="http://www.w3.org/1999/xlink">
				<path d="M10.6646,2.65667 L12.1253,2.65667 L12.1253,0.112667 C11.8733,0.078 11.0066,0 9.9973,0 C7.8913,0 6.44863,1.32467 6.44863,3.75933 L6.44863,6 L4.12463,6 L4.12463,8.844 L6.44863,8.844 L6.44863,16 L9.29797,16 L9.29797,8.84467 L11.528,8.84467 L11.882,6.00067 L9.2973,6.00067 L9.2973,4.04133 C9.29797,3.21933 9.5193,2.65667 10.6646,2.65667 Z"></path>
		</symbol>
		<symbol id="instagram-16" viewBox="0 0 16 16" version="1.1" xmlns="http://www.w3.org/2000/svg" xmlns:xlink="http://www.w3.org/1999/xlink">
				<path d="M10.9999,0 C13.7609,0 15.9999,2.239 15.9999,5 L15.9999,11 C15.9999,13.761 13.7609,16 10.9999,16 L4.9999,16 C2.2389,16 -0.0001,13.761 -0.0001,11 L-0.0001,5 C-0.0001,2.239 2.2389,0 4.9999,0 L10.9999,0 Z M7.9999,4.00009 C5.7909,4.00009 3.9999,5.79109 3.9999,8.00009 C3.9999,10.2091 5.7909,12.0001 7.9999,12.0001 C10.2089,12.0001 11.9999,10.2091 11.9999,8.00009 C11.9999,5.79109 10.2089,4.00009 7.9999,4.00009 Z M7.9999,10.5001 C6.6219,10.5001 5.4999,9.37809 5.4999,8.00009 C5.4999,6.62109 6.6219,5.50009 7.9999,5.50009 C9.3779,5.50009 10.4999,6.62109 10.4999,8.00009 C10.4999,9.37809 9.3779,10.5001 7.9999,10.5001 Z M12.8332,3.70027 C12.8332,3.4059 12.5946,3.16727 12.3002,3.16727 C12.0058,3.16727 11.7672,3.4059 11.7672,3.70027 C11.7672,3.99464 12.0058,4.23327 12.3002,4.23327 C12.5946,4.23327 12.8332,3.99464 12.8332,3.70027 Z"></path>
		</symbol>
		<symbol id="twitter-16" viewBox="0 0 16 16" version="1.1" xmlns="http://www.w3.org/2000/svg" xmlns:xlink="http://www.w3.org/1999/xlink">
				<path d="M16,3.039 C15.405,3.3 14.771,3.473 14.11,3.557 C14.79,3.151 15.309,2.513 15.553,1.744 C14.919,2.122 14.219,2.389 13.473,2.538 C12.871,1.897 12.013,1.5 11.077,1.5 C9.261,1.5 7.799,2.974 7.799,4.781 C7.799,5.041 7.821,5.291 7.875,5.529 C5.148,5.396 2.735,4.089 1.114,2.098 C0.831,2.589 0.665,3.151 0.665,3.756 C0.665,4.892 1.25,5.899 2.122,6.482 C1.595,6.472 1.078,6.319 0.64,6.078 C0.64,6.088 0.64,6.101 0.64,6.114 C0.64,7.708 1.777,9.032 3.268,9.337 C3.001,9.41 2.71,9.445 2.408,9.445 C2.198,9.445 1.986,9.433 1.787,9.389 C2.212,10.688 3.418,11.643 4.852,11.674 C3.736,12.547 2.319,13.073 0.785,13.073 C0.516,13.073 0.258,13.061 0,13.028 C1.453,13.965 3.175,14.5 5.032,14.5 C11.068,14.5 14.368,9.5 14.368,5.166 C14.368,5.021 14.363,4.881 14.356,4.742 C15.007,4.28 15.554,3.703 16,3.039 Z"></path>
		</symbol>
		<symbol id="telegram-16" viewBox="0 0 16 16" version="1.1" xmlns="http://www.w3.org/2000/svg">
				<path d="M1.09688595,5.69248264 C5.38001983,3.82638017 8.23609917,2.59613884 9.66515041,2.00175868 C13.7453223,0.304643967 14.5931901,0.00983846612 15.1457851,0.000103793322 C15.2673058,-0.00203723636 15.5391736,0.0280842314 15.7151736,0.170922314 C15.8638017,0.291531901 15.9046612,0.454459504 15.9242314,0.568810579 C15.9438017,0.683161653 15.9682645,0.943657521 15.9488264,1.14720132 C15.7277355,3.47041322 14.7710413,9.1082314 14.2842975,11.710281 C14.078281,12.8112926 13.6727273,13.1804562 13.2801322,13.2165818 C12.4269488,13.2950744 11.7790545,12.6527207 10.9526876,12.1110215 C9.65955702,11.2633653 8.9290314,10.7356959 7.67383802,9.90853554 C6.22323306,8.95262149 7.16359669,8.42722645 7.99029421,7.56859504 C8.20663802,7.34388099 11.9659107,3.92452231 12.0386777,3.61433388 C12.0477752,3.57553719 12.0562248,3.43092893 11.970314,3.35457851 C11.8844033,3.27821488 11.7576066,3.30433058 11.6661157,3.32509091 C11.5364231,3.35453884 9.47063802,4.71993388 5.46878678,7.42130248 C4.88241983,7.82394711 4.3513124,8.02012562 3.87545124,8.00985124 C3.35086281,7.99850579 2.34175207,7.71322975 1.59159008,7.46938182 C0.671473719,7.1702876 -0.059813157,7.01215207 0.00386546777,6.50421157 C0.0370332562,6.23962975 0.401373884,5.96905785 1.09688595,5.69248264 Z"></path>
		</symbol>
		<symbol id="darr-12" viewBox="0 0 12 12" version="1.1" xmlns="http://www.w3.org/2000/svg" xmlns:xlink="http://www.w3.org/1999/xlink">
				<path d="M5.99164977,7.43797 L1.76886977,2.360589 C1.41571977,1.9359681 0.785209771,1.87803 0.360588771,2.231181 C-0.0640312295,2.584332 -0.121969229,3.21484 0.231180771,3.63946 L5.22128977,9.63946 C5.62061977,10.1196 6.35746977,10.12032 6.75772977,9.64096 L11.7676498,3.64096 C12.1216498,3.21702 12.0648498,2.586403 11.6409498,2.232427 C11.2170498,1.878451 10.5864498,1.9351617 10.2324498,2.359095 L5.99164977,7.43797 Z"></path>
		</symbol>
		<symbol id="cross-24" viewBox="0 0 24 24" version="1.1" xmlns="http://www.w3.org/2000/svg" xmlns:xlink="http://www.w3.org/1999/xlink">
				<path d="M5.644695,5.611065 C6.04278,5.212978 6.68821,5.212978 7.08629,5.611065 L12.01682,10.54159 L16.9473,5.611065 C17.3454,5.212979 17.9908,5.212979 18.3889,5.611064 C18.787,6.00915 18.787,6.65457 18.3889,7.05266 L13.45841,11.98318 L18.3889,16.9137 C18.787,17.3118 18.787,17.9572 18.3889,18.3553 C17.9909,18.7534 17.3454,18.7534 16.9473,18.3553 L12.01682,13.42478 L7.05266,18.3889 C6.65457,18.787 6.00915,18.787 5.611065,18.3889 C5.212979,17.9909 5.212978,17.3454 5.611064,16.9473 L10.57522,11.98318 L5.644695,7.05266 C5.24661,6.65458 5.24661,6.00915 5.644695,5.611065 Z"></path>
		</symbol>
		<symbol id="back-24" viewBox="0 0 24 24" version="1.1" xmlns="http://www.w3.org/2000/svg" xmlns:xlink="http://www.w3.org/1999/xlink">
				<path d="M5.61872082,12.8724 L10.3728,17.1232 C10.7845,17.4913 10.8198,18.1235 10.4517,18.5352 C10.0836,18.9469 9.4514,18.9823 9.0397,18.6141 L2.3439797,12.6272061 C2.31020474,12.5977795 2.27801133,12.5657379 2.24768,12.5311 C1.88385,12.1156 1.92573,11.4839 2.34123,11.12 C2.34483147,11.1167207 2.34851002,11.1135389 2.35220683,11.110388 L9.0474,5.24768 C9.4629,4.88385 10.0947,4.92573 10.4586,5.34123 C10.8224,5.75673 10.7805,6.38851 10.365,6.75235 L5.65991953,10.8724 L20.9345,10.8724 C21.4857,10.8724 21.9326,11.3201 21.9326,11.8724 C21.9326,12.4246 21.4857,12.8724 20.9345,12.8724 L5.61872082,12.8724 Z"></path>
		</symbol>
		<symbol id="link-16" viewBox="0 0 16 16" version="1.1" xmlns="http://www.w3.org/2000/svg" xmlns:xlink="http://www.w3.org/1999/xlink">
				<path d="M1.70005,3.099997 C1.70005,2.326797 2.32685,1.699997 3.10005,1.699997 L4.50005,1.699997 C4.88665,1.699997 5.20005,1.386597 5.20005,0.999997 C5.20005,0.613397 4.88665,0.3 4.50005,0.3 L3.10005,0.3 C1.55365,0.3 0.300049,1.553607 0.300049,3.099997 L0.300049,12.899997 C0.300049,14.446397 1.55365,15.699997 3.10005,15.699997 L12.9,15.699997 C14.4464,15.699997 15.7,14.446397 15.7,12.899997 L15.7,11.499997 C15.7,11.113397 15.3866,10.799997 15,10.799997 C14.6134,10.799997 14.3,11.113397 14.3,11.499997 L14.3,12.899997 C14.3,13.673197 13.6732,14.299997 12.9,14.299997 L3.10005,14.299997 C2.32685,14.299997 1.70005,13.673197 1.70005,12.899997 L1.70005,3.099997 Z M15,0.3 L10.1,0.3 C9.71345,0.3 9.40005,0.613397 9.40005,0.999997 C9.40005,1.386597 9.71345,1.699997 10.1,1.699997 L13.3101,1.699997 L5.40507,9.604997 C5.13171,9.878397 5.13171,10.321597 5.40507,10.594997 C5.67844,10.868297 6.12166,10.868297 6.39502,10.594997 L14.3,2.689947 L14.3,5.899997 C14.3,6.286597 14.6134,6.599997 15,6.599997 C15.3866,6.599997 15.7,6.286597 15.7,5.899997 L15.7,0.999997 C15.7,0.613397 15.3866,0.3 15,0.3 Z"></path>
		</symbol>
		<symbol id="link-9" viewBox="0 0 9 9" version="1.1" xmlns="http://www.w3.org/2000/svg" xmlns:xlink="http://www.w3.org/1999/xlink">
				<path d="M8.64630089,0.215785 C8.77638089,0.347188 8.85388089,0.5283 8.85875089,0.71172 C8.86000089,0.75862 8.85911089,0.80592 8.85917089,0.85308 C8.86030089,1.80575 8.85970089,2.7575 8.85924089,3.7094 C8.85919089,4.0195 8.85911089,4.32963 8.85901089,4.64076 C8.85906089,4.68192 8.85988089,4.72305 8.85641089,4.76405 C8.84049089,4.94775 8.75358089,5.1237 8.61644089,5.24661 C8.48320089,5.36563 8.30605089,5.43412 8.12718089,5.43392 C7.94533089,5.43376 7.76432089,5.36286 7.63159089,5.23926 C7.49313089,5.11034 7.40659089,4.92583 7.39757089,4.73737 C7.39700089,4.72592 7.39676089,4.71444 7.39673089,4.70298 L7.39627089,2.4965 L1.24752089,8.64524 C1.15203089,8.74041 1.02740089,8.81032 0.894550892,8.84039 C0.746280892,8.87394 0.587613892,8.8611 0.447464892,8.80209 C0.278727892,8.73108 0.138444892,8.59396 0.063667892,8.42759 C-0.029788108,8.21965 -0.021291108,7.96912 0.095333892,7.76505 C0.127515892,7.70876 0.167291892,7.65689 0.213124892,7.61086 L6.36174089,1.46224 L4.15604089,1.46224 L4.15386089,1.46224 C4.00770089,1.46137 3.86027089,1.41571 3.73935089,1.33164 C3.59280089,1.22975 3.48530089,1.07273 3.44458089,0.89887 C3.40429089,0.72685 3.42768089,0.540417 3.51206089,0.384485 C3.58809089,0.243968 3.71045089,0.129503 3.85540089,0.064206 C3.94829089,0.022359 4.05021089,0.000626 4.15210089,1.3e-05 L4.15454089,0 C4.50566089,0.000343 4.85812089,0.000515 5.21007089,0.000564 C6.18316089,0.000699 7.15575089,0 8.12807089,0 C8.31951089,0.000257 8.50972089,0.079695 8.64453089,0.214006 L8.64630089,0.215785 Z"></path>
		</symbol>
		<symbol id="up-8" viewBox="0 0 8 15" version="1.1" xmlns="http://www.w3.org/2000/svg" xmlns:xlink="http://www.w3.org/1999/xlink">
				<path d="M3.13397,0.5 C3.51887,-0.166666 4.48113,-0.166667 4.86603,0.5 L7.4641,5 C7.849,5.66667 7.36788,6.5 6.59808,6.5 L1.40192,6.5 C0.63212,6.5 0.151,5.66667 0.5359,5 L3.13397,0.5 Z M3.13397,8.5 C3.51887,7.83333 4.48113,7.83333 4.86603,8.5 L7.4641,13 C7.849,13.6667 7.36788,14.5 6.59808,14.5 L1.40192,14.5 C0.63212,14.5 0.151,13.6667 0.5359,13 L3.13397,8.5 Z"></path>
		</symbol>
		<symbol id="more-18" viewBox="0 0 18 18" version="1.1" xmlns="http://www.w3.org/2000/svg" xmlns:xlink="http://www.w3.org/1999/xlink">
				<path d="M11.80947,13.7302 C11.92863,13.7307 12.04779,13.7596 12.15221,13.8153 C12.32704,13.9085 12.46129,14.075 12.5135,14.2687 C12.55877,14.4367 12.54298,14.6216 12.46424,14.7828 C12.42955,14.854 12.38254,14.9193 12.32669,14.9758 C12.13746,15.1657 11.94649,15.3569 11.75605,15.5475 C11.14126,16.1625 10.52531,16.7767 9.9107,17.3914 C9.77891,17.5232 9.64719,17.6551 9.51551,17.7869 C9.41097,17.891 9.2754,17.9628 9.13012,17.9888 C8.95005,18.0209 8.75792,17.9836 8.60425,17.8842 C8.56234,17.8571 8.52321,17.8256 8.48765,17.7907 L8.48561,17.7886 C8.45622,17.7595 8.42684,17.7302 8.39746,17.7009 C7.59143,16.8969 6.78758,16.0895 5.981028,15.2837 C5.878434,15.1812 5.775787,15.0787 5.673123,14.9763 C5.5460195,14.8483 5.4703608,14.6793 5.46099456,14.5009 C5.45221806,14.3339 5.5017719,14.1643 5.599978,14.0301 C5.712269,13.8766 5.883619,13.7689 6.075349,13.7389 C6.240264,13.7132 6.41399,13.7438 6.55955,13.8287 C6.61375,13.8604 6.66367,13.899 6.70823,13.9434 L8.26784,15.5036 L8.26784,11.8084 C8.26815,11.6163 8.34761,11.4216 8.48908,11.2843 C8.62272,11.1546 8.80704,11.0783 8.99388,11.0768 C9.17177,11.0754 9.3519,11.1423 9.48602,11.2623 C9.62813,11.3894 9.71794,11.5722 9.72939,11.7654 C9.73024,11.7797 9.73064,11.794 9.73069,11.8083 L9.73069,15.5038 L11.29117,13.9434 L11.29275,13.9418 C11.39736,13.8383 11.53507,13.7666 11.67713,13.7415 C11.72084,13.7338 11.76524,13.73 11.80947,13.7302 Z M9.00191,0 C9.18681,0.000936622 9.36967,0.0742012 9.50281,0.200454 C9.53686,0.232733 9.56968,0.266816 9.60307,0.300118 C10.2775,0.972959 10.95007,1.64637 11.62284,2.31979 C11.84208,2.5391 12.06132,2.75846 12.28125,2.97853 C12.31039,3.0076 12.34005,3.03609 12.36659,3.06754 C12.48522,3.20869 12.54819,3.39456 12.53813,3.57845 C12.52807,3.75683 12.45123,3.93052 12.32461,4.05686 C12.19591,4.18533 12.01778,4.26319 11.83653,4.26964 C11.64747,4.27639 11.45581,4.20711 11.31616,4.08024 C11.30767,4.07254 11.29938,4.06459 11.29126,4.05651 L9.73071,2.49662 L9.73071,6.19225 C9.73048,6.32707 9.69178,6.46463 9.61911,6.57984 C9.53799,6.7084 9.41671,6.81151 9.27589,6.86889 C9.10636,6.93799 8.91021,6.94023 8.73969,6.87546 C8.52658,6.79452 8.35543,6.61135 8.2936,6.38459 C8.27655,6.32203 8.268,6.25722 8.26786,6.19227 L8.26786,2.49681 L6.70819,4.05647 L6.70665,4.05802 C6.60268,4.16075 6.46615,4.23272 6.321195,4.25877 C6.145526,4.29035 5.95848,4.25533 5.806747,4.16119 C5.656628,4.06804 5.5413355,3.91968 5.4907406,3.74975 C5.445141,3.59663 5.45072684,3.42916 5.5070456,3.2805 C5.5431402,3.18523 5.599841,3.09779 5.671457,3.02531 L5.673174,3.02357 C5.921691,2.77554 6.171041,2.52643 6.419939,2.2776 C7.10811,1.58962 7.79535,0.901395 8.48288,0.213862 C8.61843,0.0786763 8.80911,0.000346897 8.9994,0 L9.00191,0 Z"></path>
		</symbol>
		<symbol id="info-18" viewBox="0 0 18 18" version="1.1" xmlns="http://www.w3.org/2000/svg" xmlns:xlink="http://www.w3.org/1999/xlink">
				<path d="M10,5.25 C10,5.80228 9.55228,6.25 9,6.25 C8.44772,6.25 8,5.80228 8,5.25 C8,4.69772 8.44772,4.25 9,4.25 C9.55228,4.25 10,4.69772 10,5.25 Z M8,8.75 C8,8.19772 8.44772,7.75 9,7.75 C9.55228,7.75 10,8.19772 10,8.75 L10,12.75 C10,13.3023 9.55228,13.75 9,13.75 C8.44772,13.75 8,13.3023 8,12.75 L8,8.75 Z"></path>
		</symbol>
</svg>
